# Blender v2.93.5 OBJ File: ''
# www.blender.org
mtllib cube.mtl
o Cube
v -0.334474 0.798586 -0.426232
v -0.478129 2.368473 -1.000000
v -0.524498 1.182330 1.000000
v -0.524497 2.414841 1.000000
v 0.517990 0.798585 -0.426232
v 0.661646 2.368473 -1.000000
v 0.708014 1.182330 1.000000
v 0.708014 2.414841 1.000000
v 1.091758 2.798585 1.000000
v 0.517990 0.798585 0.426232
v -0.334474 0.798586 0.426232
v -0.908242 2.798586 1.000000
v 0.417635 2.124462 0.563860
v 0.417635 1.472709 0.563860
v -0.234118 1.472709 0.563860
v -0.234118 2.124462 0.563860
v 0.708014 2.414841 0.563860
v 0.708014 1.182330 0.563860
v -0.524498 1.182330 0.563860
v -0.524497 2.414841 0.563860
v 0.417635 2.124462 2.989982
v 0.417635 1.472709 2.989982
v -0.234118 1.472709 2.989982
v -0.234118 2.124462 2.989982
v -0.908242 0.798586 1.000000
v 1.091758 0.798585 1.000000
v -0.478129 1.228698 -1.000000
v 0.661646 1.228698 -1.000000
v -0.177815 0.798586 0.539146
v 0.091758 0.798586 0.602783
v 0.361331 0.798586 0.539146
v -0.447387 0.798586 -0.269573
v -0.511025 0.798586 0.000000
v -0.447387 0.798586 0.269573
v 0.630904 0.798585 0.269573
v 0.694541 0.798585 0.000000
v 0.630904 0.798585 -0.269573
v 0.361331 0.798586 -0.539146
v 0.091758 0.798586 -0.602783
v -0.177815 0.798586 -0.539146
v 0.280855 -0.072328 0.362823
v 0.381814 -0.072328 0.290056
v -0.271065 -0.072328 0.189097
v -0.198298 -0.072328 0.290056
v 0.454581 -0.072328 -0.189097
v 0.381814 -0.072328 -0.290056
v -0.097339 -0.072328 -0.362823
v -0.198298 -0.072328 -0.290056
v -0.097339 -0.072328 0.362823
v 0.091758 -0.072328 0.407463
v -0.271065 -0.072328 -0.189097
v -0.315704 -0.072328 0.000000
v 0.454581 -0.072328 0.189097
v 0.499221 -0.072328 0.000000
v 0.280855 -0.072328 -0.362823
v 0.091758 -0.072328 -0.407463
v 0.361331 -0.072328 0.539146
v 0.517990 -0.072328 0.426232
v -0.447388 -0.072328 0.269573
v -0.334474 -0.072328 0.426232
v 0.630904 -0.072328 -0.269573
v 0.517990 -0.072328 -0.426232
v -0.177815 -0.072328 -0.539146
v -0.334474 -0.072328 -0.426232
v -0.177815 -0.072328 0.539146
v 0.091758 -0.072328 0.602783
v -0.447388 -0.072328 -0.269573
v -0.511025 -0.072328 0.000000
v 0.630904 -0.072328 0.269573
v 0.694541 -0.072328 0.000000
v 0.361331 -0.072328 -0.539146
v 0.091758 -0.072328 -0.602783
v 0.280855 0.245362 0.362823
v 0.381814 0.245362 0.290056
v -0.271065 0.245362 0.189097
v -0.198298 0.245362 0.290056
v 0.454581 0.245362 -0.189097
v 0.381814 0.245362 -0.290056
v -0.097339 0.245362 -0.362823
v -0.198298 0.245362 -0.290056
v -0.097339 0.245362 0.362823
v 0.091758 0.245362 0.407463
v -0.271065 0.245362 -0.189097
v -0.315704 0.245362 0.000000
v 0.454581 0.245362 0.189097
v 0.499221 0.245362 0.000000
v 0.280855 0.245362 -0.362823
v 0.091758 0.245362 -0.407463
v -0.908242 2.798586 -1.000000
v 1.091758 2.798585 -1.000000
v -0.908242 0.798586 -1.000000
v 1.091758 0.798585 -1.000000
v -0.276353 2.166697 -0.639898
v 0.459870 2.166697 -0.639898
v -0.276353 1.430474 -0.639898
v 0.459870 1.430474 -0.639898
v -0.478129 2.368473 -0.639898
v 0.661646 2.368473 -0.639898
v -0.478129 1.228698 -0.639898
v 0.661646 1.228698 -0.639898
v -0.276353 2.166697 -1.872205
v 0.459870 2.166697 -1.872205
v -0.276353 1.430474 -1.872205
v 0.459870 1.430474 -1.872205
v -0.276353 2.166697 -2.511677
v 0.459870 2.166697 -2.511677
v -0.276353 1.430474 -2.511677
v 0.459870 1.430474 -2.511677
v -1.192857 1.430474 -1.872205
v -1.192857 2.166697 -1.872205
v -1.192857 1.430474 -2.511677
v -1.192857 2.166697 -2.511677
vt 0.669602 0.584801
vt 0.669602 0.625000
vt 0.669602 0.625000
vt 0.577032 0.952032
vt 0.577032 0.797968
vt 0.577032 0.797968
vt 0.625000 0.000000
vt 0.375000 0.250000
vt 0.375000 0.000000
vt 0.375000 0.500000
vt 0.125000 0.750000
vt 0.125000 0.500000
vt 0.625000 0.500000
vt 0.375000 0.750000
vt 0.571236 0.303764
vt 0.428764 0.303764
vt 0.428764 0.303764
vt 0.375000 1.000000
vt 0.422968 0.952032
vt 0.422968 0.797968
vt 0.625000 0.750000
vt 0.625000 1.000000
vt 0.540735 0.834265
vt 0.459265 0.834265
vt 0.459265 0.834265
vt 0.577032 0.952032
vt 0.422968 0.952032
vt 0.422968 0.797968
vt 0.540735 0.915735
vt 0.459265 0.915735
vt 0.540735 0.834265
vt 0.459265 0.915735
vt 0.540735 0.915735
vt 0.750000 0.705398
vt 0.790199 0.705398
vt 0.875000 0.750000
vt 0.669602 0.665199
vt 0.830398 0.625000
vt 0.830398 0.584801
vt 0.875000 0.500000
vt 0.750000 0.544602
vt 0.709801 0.544602
vt 0.709801 0.544602
vt 0.669602 0.544602
vt 0.669602 0.584801
vt 0.790199 0.544602
vt 0.750000 0.544602
vt 0.669602 0.544602
vt 0.790199 0.705398
vt 0.830398 0.544602
vt 0.790199 0.544602
vt 0.830398 0.544602
vt 0.709801 0.705398
vt 0.750000 0.705398
vt 0.830398 0.584801
vt 0.669602 0.705398
vt 0.669602 0.705398
vt 0.709801 0.705398
vt 0.830398 0.665199
vt 0.830398 0.625000
vt 0.830398 0.705398
vt 0.830398 0.705398
vt 0.830398 0.665199
vt 0.669602 0.665199
vt 0.694453 0.594442
vt 0.691363 0.625000
vt 0.691363 0.625000
vt 0.780558 0.680547
vt 0.694453 0.655558
vt 0.805547 0.594442
vt 0.719443 0.569453
vt 0.719442 0.680547
vt 0.702815 0.672186
vt 0.750000 0.683637
vt 0.702815 0.577815
vt 0.805547 0.655558
vt 0.797185 0.672185
vt 0.808637 0.625000
vt 0.780558 0.569453
vt 0.797186 0.577815
vt 0.750000 0.566363
vt 0.750000 0.566363
vt 0.808637 0.625000
vt 0.702815 0.672186
vt 0.694453 0.655558
vt 0.797186 0.577815
vt 0.805547 0.655558
vt 0.702815 0.577815
vt 0.719442 0.680547
vt 0.805547 0.594442
vt 0.750000 0.683637
vt 0.780558 0.569453
vt 0.780558 0.680547
vt 0.694453 0.594442
vt 0.797185 0.672185
vt 0.719443 0.569453
vt 0.428764 0.446236
vt 0.571236 0.446236
vt 0.625000 0.250000
vt 0.453986 0.328986
vt 0.453986 0.421014
vt 0.453986 0.421014
vt 0.428764 0.446236
vt 0.571236 0.303764
vt 0.571236 0.446236
vt 0.546014 0.421014
vt 0.546014 0.328986
vt 0.546014 0.421014
vt 0.546014 0.328986
vt 0.546014 0.328986
vt 0.453986 0.328986
vt 0.453986 0.421014
vt 0.453986 0.328986
vt 0.453986 0.421014
vt 0.546014 0.421014
vt 0.546014 0.421014
vt 0.546014 0.421014
vt 0.453986 0.421014
vn -0.9732 0.0000 -0.2298
vn 0.0000 1.0000 0.0000
vn 1.0000 0.0000 0.0000
vn -1.0000 0.0000 0.0000
vn 0.0000 0.0000 1.0000
vn 0.0000 -1.0000 0.0000
vn -0.2298 0.0000 -0.9732
vn -0.8112 0.0000 -0.5847
vn 0.2298 -0.0000 -0.9732
vn -0.5847 0.0000 -0.8112
vn 0.2298 -0.0000 0.9732
vn 0.5847 -0.0000 -0.8112
vn 0.8112 -0.0000 -0.5847
vn -0.2298 0.0000 0.9732
vn 0.9732 0.0000 -0.2298
vn -0.8112 0.0000 0.5847
vn -0.5847 0.0000 0.8112
vn 0.9732 0.0000 0.2298
vn 0.5847 -0.0000 0.8112
vn 0.8112 0.0000 0.5847
vn -0.9732 0.0000 0.2298
vn 0.0000 0.0000 -1.0000
usemtl Material
s off
f 32/1/1 68/2/1 33/3/1
f 7/4/2 19/5/2 3/6/2
f 26/7/3 90/8/3 9/9/3
f 89/10/2 9/11/2 90/12/2
f 91/13/4 12/14/4 89/10/4
f 28/15/4 98/16/4 6/17/4
f 7/4/5 9/18/5 8/19/5
f 4/20/5 25/21/5 3/6/5
f 3/6/5 26/22/5 7/4/5
f 8/19/5 12/14/5 4/20/5
f 15/23/4 24/24/4 16/25/4
f 8/19/4 18/26/4 7/4/4
f 4/20/6 17/27/6 8/19/6
f 3/6/3 20/28/3 4/20/3
f 14/29/5 17/27/5 13/30/5
f 16/25/5 19/5/5 15/23/5
f 15/23/5 18/26/5 14/29/5
f 13/30/5 20/28/5 16/25/5
f 23/31/5 21/32/5 24/24/5
f 14/29/6 23/31/6 15/23/6
f 13/30/3 22/33/3 14/29/3
f 16/25/2 21/32/2 13/30/2
f 30/34/6 31/35/6 26/36/6
f 33/3/6 34/37/6 25/21/6
f 36/38/6 37/39/6 92/40/6
f 39/41/6 40/42/6 91/13/6
f 39/41/7 63/43/7 40/42/7
f 1/44/8 67/45/8 32/1/8
f 38/46/9 72/47/9 39/41/9
f 40/42/10 64/48/10 1/44/10
f 30/34/11 57/49/11 31/35/11
f 5/50/12 71/51/12 38/46/12
f 37/39/13 62/52/13 5/50/13
f 29/53/14 66/54/14 30/34/14
f 36/38/15 61/55/15 37/39/15
f 34/37/16 60/56/16 11/57/16
f 11/57/17 65/58/17 29/53/17
f 35/59/18 70/60/18 36/38/18
f 31/35/19 58/61/19 10/62/19
f 10/62/20 69/63/20 35/59/20
f 33/3/21 59/64/21 34/37/21
f 51/65/18 84/66/18 52/67/18
f 41/68/6 58/61/6 57/49/6
f 43/69/6 60/56/6 59/64/6
f 45/70/6 62/52/6 61/55/6
f 47/71/6 64/48/6 63/43/6
f 49/72/6 60/56/6 44/73/6
f 50/74/6 65/58/6 49/72/6
f 50/74/6 57/49/6 66/54/6
f 51/65/6 64/48/6 48/75/6
f 52/67/6 67/45/6 51/65/6
f 52/67/6 59/64/6 68/2/6
f 53/76/6 58/61/6 42/77/6
f 54/78/6 69/63/6 53/76/6
f 54/78/6 61/55/6 70/60/6
f 55/79/6 62/52/6 46/80/6
f 56/81/6 71/51/6 55/79/6
f 56/81/6 63/43/6 72/47/6
f 84/66/6 88/82/6 86/83/6
f 43/69/13 76/84/13 44/73/13
f 52/67/15 75/85/15 43/69/15
f 45/70/16 78/86/16 46/80/16
f 42/77/8 85/87/8 53/76/8
f 47/71/19 80/88/19 48/75/19
f 53/76/1 86/83/1 54/78/1
f 44/73/12 81/89/12 49/72/12
f 54/78/21 77/90/21 45/70/21
f 49/72/9 82/91/9 50/74/9
f 46/80/17 87/92/17 55/79/17
f 50/74/7 73/93/7 41/68/7
f 55/79/14 88/82/14 56/81/14
f 48/75/20 83/94/20 51/65/20
f 41/68/10 74/95/10 42/77/10
f 56/81/11 79/96/11 47/71/11
f 2/97/22 90/8/22 6/17/22
f 27/98/22 89/10/22 2/97/22
f 6/17/22 92/99/22 28/15/22
f 28/15/22 91/13/22 27/98/22
f 94/100/2 101/101/2 93/102/2
f 6/17/6 97/103/6 2/97/6
f 27/98/2 100/104/2 28/15/2
f 2/97/3 99/105/3 27/98/3
f 93/102/22 98/16/22 94/100/22
f 95/106/22 97/103/22 93/102/22
f 94/100/22 100/104/22 96/107/22
f 96/107/22 99/105/22 95/106/22
f 103/108/6 108/109/6 104/110/6
f 95/106/6 104/110/6 96/107/6
f 93/102/4 103/108/4 95/106/4
f 96/107/3 102/111/3 94/100/3
f 108/109/22 105/112/22 106/113/22
f 105/112/2 110/114/2 101/101/2
f 104/110/3 106/113/3 102/111/3
f 102/111/2 105/112/2 101/101/2
f 110/114/4 111/115/4 109/116/4
f 101/101/5 109/116/5 103/108/5
f 103/108/6 111/115/6 107/117/6
f 107/117/22 112/118/22 105/112/22
f 32/1/1 67/45/1 68/2/1
f 7/4/2 18/26/2 19/5/2
f 26/7/3 92/99/3 90/8/3
f 89/10/2 12/14/2 9/11/2
f 91/13/4 25/21/4 12/14/4
f 28/15/4 100/104/4 98/16/4
f 7/4/5 26/22/5 9/18/5
f 4/20/5 12/14/5 25/21/5
f 3/6/5 25/21/5 26/22/5
f 8/19/5 9/18/5 12/14/5
f 15/23/4 23/31/4 24/24/4
f 8/19/4 17/27/4 18/26/4
f 4/20/6 20/28/6 17/27/6
f 3/6/3 19/5/3 20/28/3
f 14/29/5 18/26/5 17/27/5
f 16/25/5 20/28/5 19/5/5
f 15/23/5 19/5/5 18/26/5
f 13/30/5 17/27/5 20/28/5
f 23/31/5 22/33/5 21/32/5
f 14/29/6 22/33/6 23/31/6
f 13/30/3 21/32/3 22/33/3
f 16/25/2 24/24/2 21/32/2
f 25/21/6 11/57/6 29/53/6
f 25/21/6 29/53/6 30/34/6
f 31/35/6 10/62/6 26/36/6
f 25/21/6 30/34/6 26/36/6
f 91/13/6 1/44/6 32/1/6
f 91/13/6 32/1/6 33/3/6
f 34/37/6 11/57/6 25/21/6
f 91/13/6 33/3/6 25/21/6
f 26/36/6 10/62/6 35/59/6
f 26/36/6 35/59/6 36/38/6
f 37/39/6 5/50/6 92/40/6
f 26/36/6 36/38/6 92/40/6
f 92/40/6 5/50/6 38/46/6
f 92/40/6 38/46/6 39/41/6
f 40/42/6 1/44/6 91/13/6
f 92/40/6 39/41/6 91/13/6
f 39/41/7 72/47/7 63/43/7
f 1/44/8 64/48/8 67/45/8
f 38/46/9 71/51/9 72/47/9
f 40/42/10 63/43/10 64/48/10
f 30/34/11 66/54/11 57/49/11
f 5/50/12 62/52/12 71/51/12
f 37/39/13 61/55/13 62/52/13
f 29/53/14 65/58/14 66/54/14
f 36/38/15 70/60/15 61/55/15
f 34/37/16 59/64/16 60/56/16
f 11/57/17 60/56/17 65/58/17
f 35/59/18 69/63/18 70/60/18
f 31/35/19 57/49/19 58/61/19
f 10/62/20 58/61/20 69/63/20
f 33/3/21 68/2/21 59/64/21
f 51/65/18 83/94/18 84/66/18
f 41/68/6 42/77/6 58/61/6
f 43/69/6 44/73/6 60/56/6
f 45/70/6 46/80/6 62/52/6
f 47/71/6 48/75/6 64/48/6
f 49/72/6 65/58/6 60/56/6
f 50/74/6 66/54/6 65/58/6
f 50/74/6 41/68/6 57/49/6
f 51/65/6 67/45/6 64/48/6
f 52/67/6 68/2/6 67/45/6
f 52/67/6 43/69/6 59/64/6
f 53/76/6 69/63/6 58/61/6
f 54/78/6 70/60/6 69/63/6
f 54/78/6 45/70/6 61/55/6
f 55/79/6 71/51/6 62/52/6
f 56/81/6 72/47/6 71/51/6
f 56/81/6 47/71/6 63/43/6
f 86/83/6 85/87/6 82/91/6
f 85/87/6 74/95/6 73/93/6
f 82/91/6 85/87/6 73/93/6
f 82/91/6 81/89/6 84/66/6
f 81/89/6 76/84/6 75/85/6
f 84/66/6 81/89/6 75/85/6
f 84/66/6 83/94/6 88/82/6
f 83/94/6 80/88/6 79/96/6
f 88/82/6 83/94/6 79/96/6
f 88/82/6 87/92/6 77/90/6
f 87/92/6 78/86/6 77/90/6
f 77/90/6 86/83/6 88/82/6
f 86/83/6 82/91/6 84/66/6
f 43/69/13 75/85/13 76/84/13
f 52/67/15 84/66/15 75/85/15
f 45/70/16 77/90/16 78/86/16
f 42/77/8 74/95/8 85/87/8
f 47/71/19 79/96/19 80/88/19
f 53/76/1 85/87/1 86/83/1
f 44/73/12 76/84/12 81/89/12
f 54/78/21 86/83/21 77/90/21
f 49/72/9 81/89/9 82/91/9
f 46/80/17 78/86/17 87/92/17
f 50/74/7 82/91/7 73/93/7
f 55/79/14 87/92/14 88/82/14
f 48/75/20 80/88/20 83/94/20
f 41/68/10 73/93/10 74/95/10
f 56/81/11 88/82/11 79/96/11
f 2/97/22 89/10/22 90/8/22
f 27/98/22 91/13/22 89/10/22
f 6/17/22 90/8/22 92/99/22
f 28/15/22 92/99/22 91/13/22
f 94/100/2 102/111/2 101/101/2
f 6/17/6 98/16/6 97/103/6
f 27/98/2 99/105/2 100/104/2
f 2/97/3 97/103/3 99/105/3
f 93/102/22 97/103/22 98/16/22
f 95/106/22 99/105/22 97/103/22
f 94/100/22 98/16/22 100/104/22
f 96/107/22 100/104/22 99/105/22
f 103/108/6 107/117/6 108/109/6
f 95/106/6 103/108/6 104/110/6
f 93/102/4 101/101/4 103/108/4
f 96/107/3 104/110/3 102/111/3
f 108/109/22 107/117/22 105/112/22
f 105/112/2 112/118/2 110/114/2
f 104/110/3 108/109/3 106/113/3
f 102/111/2 106/113/2 105/112/2
f 110/114/4 112/118/4 111/115/4
f 101/101/5 110/114/5 109/116/5
f 103/108/6 109/116/6 111/115/6
f 107/117/22 111/115/22 112/118/22
